<svg t="1698551170862" class="icon" viewBox="0 0 1024 1024" version="1.1" xmlns="http://www.w3.org/2000/svg" p-id="1417" xmlns:xlink="http://www.w3.org/1999/xlink" width="200" height="200"><path d="M810.752 128c50.624 0 91.648 41.024 91.648 91.648v413.76c0 50.624-41.024 91.648-91.648 91.648H219.648C168.96 725.056 128 684.032 128 633.408V219.648C128 168.96 169.024 128 219.648 128h591.104z m0 65.024H219.648a26.624 26.624 0 0 0-26.624 26.624v413.76c0 14.72 11.904 26.624 26.624 26.624h591.104c14.72 0 26.624-11.904 26.624-26.624V219.648a26.624 26.624 0 0 0-26.624-26.624z m-444.608 220.8c16.32 0 29.568 13.248 29.568 29.568V536.32a29.568 29.568 0 1 1-59.136 0V443.392c0-16.32 13.248-29.504 29.568-29.504z m151.936-69.632c16.32 0 29.568 13.248 29.568 29.568v162.56a29.568 29.568 0 1 1-59.136 0V373.76c0-16.32 13.248-29.568 29.568-29.568z m151.936-31.68c16.32 0 29.568 13.248 29.568 29.568V536.32a29.568 29.568 0 1 1-59.136 0V342.08c0-16.32 13.248-29.568 29.568-29.568z m-388.288 498.24h466.944a32.512 32.512 0 0 1 0 65.024H281.728a32.512 32.512 0 1 1 0-65.024z" p-id="1418"></path></svg>